<svg width="7" height="16" viewBox="0 0 7 16" fill="none" xmlns="http://www.w3.org/2000/svg">
<path opacity="0.5" d="M6.73626 13.7391C6.73662 13.7175 6.54004 12.209 6.54004 12.209C6.53028 11.8095 6.3669 11.4292 6.0839 11.1471C5.80089 10.865 5.42003 10.7029 5.02054 10.6944L3.77872 10.5903C3.45513 9.81096 3.2888 8.97535 3.28928 8.13152C3.28977 7.28768 3.45707 6.45227 3.78156 5.67332L5.02124 5.56706C5.42037 5.55816 5.80073 5.39589 6.08335 5.11392C6.36598 4.83196 6.52914 4.45198 6.53897 4.05287C6.53897 4.05287 6.73485 2.54648 6.73449 2.52416C6.73625 2.11848 6.57815 1.72843 6.29441 1.43846C6.01068 1.1485 5.62416 0.981962 5.21853 0.974908L4.45736 0.922133C-1.18499 1.09498 -1.18817 15.2101 4.49278 15.3379L5.18772 15.289C5.59819 15.2878 5.99149 15.1241 6.2816 14.8337C6.57172 14.5434 6.73542 14.1496 6.73626 13.7391Z" fill="black"/>
</svg>
