<svg width="17" height="21" viewBox="0 0 17 21" fill="none" xmlns="http://www.w3.org/2000/svg">
<path d="M8.37418 20.0068L7.79328 19.5088C6.99246 18.8383 0 12.7993 0 8.38199C0 3.75707 3.74926 0.0078125 8.37418 0.0078125C12.9991 0.0078125 16.7484 3.75707 16.7484 8.38199C16.7484 12.7994 9.7559 18.8383 8.9584 19.5121L8.37418 20.0068ZM8.37418 1.81855C4.75102 1.82266 1.81488 4.75879 1.81078 8.38195C1.81078 11.157 6.11281 15.5902 8.37418 17.6192C10.6356 15.5893 14.9376 11.1537 14.9376 8.38195C14.9335 4.75879 11.9974 1.8227 8.37418 1.81855Z" fill="#9E1B32"/>
<path d="M8.37414 11.7014C6.54086 11.7014 5.05469 10.2152 5.05469 8.38195C5.05469 6.54867 6.54086 5.0625 8.37414 5.0625C10.2074 5.0625 11.6936 6.54867 11.6936 8.38195C11.6936 10.2152 10.2075 11.7014 8.37414 11.7014ZM8.37414 6.72219C7.4575 6.72219 6.71441 7.46527 6.71441 8.38191C6.71441 9.29855 7.4575 10.0416 8.37414 10.0416C9.29078 10.0416 10.0339 9.29855 10.0339 8.38191C10.0339 7.46527 9.29082 6.72219 8.37414 6.72219Z" fill="#9E1B32"/>
</svg>
