<?xml version="1.0" standalone="no"?>
<!DOCTYPE svg PUBLIC "-//W3C//DTD SVG 20010904//EN"
 "http://www.w3.org/TR/2001/REC-SVG-20010904/DTD/svg10.dtd">
<svg version="1.0" xmlns="http://www.w3.org/2000/svg"
 width="1024.000000pt" height="1024.000000pt" viewBox="0 0 1024.000000 1024.000000"
 preserveAspectRatio="xMidYMid meet">
<metadata>
Created by potrace 1.14, written by Peter Selinger 2001-2017
</metadata>
<g transform="translate(0.000000,1024.000000) scale(0.100000,-0.100000)"
fill="#000000" stroke="none">
<path d="M4435 7999 c-4 -6 -5 -12 -2 -15 2 -3 7 2 10 11 7 17 1 20 -8 4z"/>
<path d="M4458 7989 c-26 -19 -55 -18 -43 2 3 5 -1 6 -10 2 -14 -5 -14 -8 -3
-15 10 -7 9 -8 -4 -4 -11 3 -18 0 -18 -7 0 -7 -4 -6 -10 3 -12 19 -32 19 -48
0 -8 -8 -11 -10 -8 -3 8 16 -15 22 -36 9 -13 -8 -24 -7 -39 2 -12 8 -18 9 -15
3 4 -5 2 -12 -4 -16 -5 -3 -10 1 -10 10 0 15 -1 15 -16 1 -20 -21 -25 -20 -17
2 6 16 5 16 -14 -1 -16 -14 -23 -15 -29 -6 -5 8 -3 10 6 4 9 -6 11 -4 6 4 -6
9 -12 8 -26 -4 -14 -12 -20 -13 -26 -4 -5 8 -3 10 6 4 9 -5 11 -4 6 3 -5 9
-12 9 -26 0 -10 -7 -16 -16 -13 -22 3 -5 1 -6 -6 -2 -6 4 -9 12 -6 17 10 15
-5 10 -32 -11 -18 -14 -30 -17 -38 -10 -6 5 -15 7 -19 3 -4 -4 -12 -1 -17 7
-9 13 -10 12 -6 -2 3 -9 -1 -19 -9 -22 -8 -3 -13 -2 -10 3 3 5 -1 12 -10 15
-8 3 -13 2 -10 -3 3 -5 -1 -12 -10 -15 -21 -8 -24 -8 -24 5 0 5 6 7 13 3 6 -4
9 -3 4 1 -10 12 -46 14 -44 2 1 -5 -6 -11 -15 -12 -10 -2 -18 1 -18 6 0 5 -5
9 -11 9 -6 0 -9 -7 -6 -15 4 -8 2 -17 -2 -20 -5 -3 -11 1 -14 9 -3 8 -14 13
-24 11 -10 -2 -22 -4 -26 -4 -5 -1 -6 -5 -3 -10 8 -12 -60 -6 -77 7 -11 9 -14
9 -14 -3 0 -8 4 -12 8 -9 4 2 10 0 14 -5 3 -6 -4 -8 -17 -5 -32 7 -88 7 -95 0
-3 -3 -15 -1 -26 5 -15 9 -18 8 -12 -2 6 -9 3 -11 -8 -6 -9 3 -19 2 -23 -4 -3
-6 -13 -8 -23 -4 -12 5 -13 4 -4 -6 10 -10 16 -9 30 2 16 13 17 12 5 -3 -15
-18 -52 -20 -64 -3 -5 6 -8 5 -8 -2 0 -7 -5 -13 -11 -13 -5 0 -7 6 -3 13 5 9
4 9 -6 0 -7 -6 -19 -9 -28 -5 -11 4 -14 1 -10 -9 4 -10 -2 -15 -20 -17 -14 -1
-30 -8 -35 -15 -5 -8 -6 -5 -3 8 5 16 1 20 -18 20 -13 0 -22 -3 -19 -7 2 -5
-3 -8 -11 -8 -9 0 -16 5 -16 12 0 6 -3 8 -6 5 -4 -4 -1 -13 6 -22 11 -13 10
-14 -4 -9 -9 3 -16 11 -16 18 0 7 -4 6 -9 -3 -6 -9 -11 -10 -15 -2 -11 17 -26
3 -19 -17 6 -15 5 -15 -10 -4 -14 12 -16 11 -12 -10 4 -22 4 -22 -10 -4 -9 12
-15 15 -15 7 0 -9 -6 -7 -17 6 -10 10 -15 14 -10 9 8 -12 10 -32 1 -23 -9 9
-44 -25 -37 -36 3 -6 1 -7 -6 -3 -6 4 -9 11 -6 16 3 5 1 11 -5 15 -5 3 -10 -1
-10 -9 0 -8 -5 -18 -12 -22 -7 -4 -8 -3 -4 4 4 8 -4 10 -25 7 -18 -2 -42 1
-53 7 -19 10 -20 10 -7 -6 13 -15 12 -16 -13 -6 -21 8 -25 7 -19 -3 4 -6 8
-19 10 -27 1 -10 -3 -9 -13 4 -8 11 -14 16 -14 12 0 -5 -8 -2 -17 5 -17 13
-17 13 -1 -6 16 -19 15 -20 -7 -20 -13 0 -22 2 -20 5 2 3 0 12 -6 20 -7 12 -9
10 -9 -9 0 -23 0 -23 -27 -5 -27 17 -28 17 -13 -1 14 -17 13 -18 -4 -12 -15 6
-17 5 -8 -6 12 -14 6 -27 -12 -27 -6 0 -5 4 2 9 10 6 7 10 -12 13 -19 4 -24 2
-17 -6 7 -8 4 -12 -10 -12 -13 0 -18 5 -14 16 4 13 3 13 -7 -1 -7 -9 -19 -14
-25 -12 -12 4 -17 -8 -14 -29 0 -4 -7 -4 -16 -1 -12 5 -14 3 -8 -8 5 -8 -3 -4
-17 9 l-25 22 -23 -20 c-27 -23 -36 -25 -43 -7 -4 10 -6 10 -6 0 -1 -7 -8 -13
-17 -13 -8 0 -13 -4 -9 -9 3 -5 0 -13 -6 -17 -7 -4 -9 -3 -6 3 4 6 0 14 -9 17
-21 8 -24 8 -24 -5 0 -5 5 -7 10 -4 6 3 10 2 10 -3 0 -5 -10 -12 -22 -16 -35
-9 -50 -7 -42 6 5 7 3 8 -5 4 -7 -5 -10 -14 -8 -20 3 -7 -1 -13 -9 -13 -7 0
-11 5 -7 10 3 5 -4 4 -16 -2 -12 -7 -26 -9 -31 -6 -5 3 -12 0 -15 -6 -4 -5
-13 -8 -21 -5 -8 3 -11 0 -8 -8 3 -8 0 -17 -7 -22 -8 -4 -10 -3 -5 4 4 7 2 12
-3 12 -6 0 -11 -6 -11 -14 0 -21 -20 -30 -33 -16 -9 9 -9 11 2 8 7 -2 15 3 16
10 2 7 1 8 -2 2 -3 -7 -10 -7 -21 2 -12 10 -14 10 -8 1 4 -8 2 -13 -6 -13 -17
0 -48 -36 -40 -46 4 -4 0 -3 -8 2 -26 15 -50 15 -50 -1 0 -9 -6 -12 -15 -9 -8
4 -12 11 -8 17 3 6 1 7 -6 3 -6 -4 -9 -12 -6 -17 4 -5 1 -9 -5 -9 -6 0 -8 -6
-4 -12 4 -7 -3 -4 -17 7 -15 13 -19 14 -11 3 13 -16 2 -34 -12 -21 -10 11 -37
12 -30 2 3 -5 10 -6 16 -3 6 4 8 2 5 -3 -12 -19 -47 -22 -57 -5 -8 14 -10 15
-11 2 -1 -8 -1 -21 0 -27 1 -8 -5 -10 -14 -7 -8 3 -12 11 -8 17 3 6 1 7 -6 3
-9 -6 -9 -11 -1 -21 8 -10 8 -15 -1 -21 -7 -4 -9 -3 -6 3 4 6 0 13 -8 16 -9 4
-12 1 -8 -9 4 -10 0 -12 -11 -8 -12 5 -16 0 -17 -17 0 -13 -3 -18 -6 -11 -2 6
-9 12 -14 12 -6 0 -8 -4 -5 -9 8 -12 -22 -24 -57 -24 -19 0 -24 -3 -18 -11 7
-8 4 -12 -10 -13 -11 -1 -17 2 -15 6 3 4 -1 8 -9 8 -13 0 -13 -2 0 -17 13 -15
12 -16 -14 -14 -22 1 -28 -2 -24 -12 4 -10 0 -12 -11 -8 -11 4 -16 2 -14 -7 2
-10 -5 -13 -24 -11 -22 2 -26 -1 -22 -13 5 -13 2 -15 -20 -9 -17 4 -26 2 -26
-6 0 -8 -9 -7 -28 6 -20 13 -24 14 -14 2 10 -12 10 -18 -2 -28 -9 -6 -20 -9
-26 -5 -7 4 -14 -2 -17 -15 -4 -17 -11 -21 -29 -17 -20 3 -22 2 -13 -10 10
-11 8 -12 -5 -7 -9 4 -16 3 -14 -2 2 -5 0 -9 -3 -9 -9 0 -35 -29 -42 -45 -3
-10 -6 -6 -7 10 l-1 25 -9 -23 c-5 -12 -21 -27 -34 -34 -14 -6 -23 -14 -21
-19 3 -4 0 -11 -6 -15 -8 -4 -9 -3 -5 4 4 7 2 12 -3 12 -6 0 -11 -6 -11 -13 0
-8 -12 -24 -27 -38 -14 -13 -23 -19 -20 -13 4 6 -6 16 -21 23 -24 10 -25 10
-9 -3 16 -12 16 -14 1 -20 -23 -9 -26 -8 -18 7 5 8 2 8 -9 -2 -17 -14 -24 -26
-9 -17 4 2 14 1 22 -5 13 -7 12 -9 -2 -9 -9 0 -21 -7 -26 -17 -6 -10 -16 -14
-26 -10 -11 4 -15 3 -11 -4 4 -6 -2 -13 -14 -16 -12 -3 -21 -9 -21 -14 0 -5
-4 -9 -9 -9 -5 0 -7 10 -5 23 3 13 -1 8 -10 -11 -9 -18 -20 -31 -26 -27 -5 3
-7 0 -4 -8 6 -18 -5 -26 -39 -29 -14 -1 -23 -6 -21 -10 3 -5 11 -5 17 -2 7 4
8 3 4 -2 -5 -5 -13 -10 -18 -10 -5 -1 -14 -2 -20 -3 -5 0 -7 -6 -3 -12 4 -7 0
-9 -12 -5 -11 3 -26 1 -34 -5 -12 -8 -10 -9 7 -4 15 4 21 2 19 -9 -1 -9 -6
-19 -11 -23 -4 -4 -5 -2 -1 5 4 6 2 12 -3 12 -6 0 -11 -6 -11 -14 0 -9 -7 -13
-20 -11 -17 3 -19 1 -9 -17 7 -13 7 -18 1 -14 -6 3 -14 2 -17 -4 -4 -6 -16 -8
-27 -4 -17 5 -20 3 -15 -10 4 -10 3 -15 -3 -11 -13 8 -13 -8 0 -21 6 -6 3 -10
-10 -11 -12 -1 -18 3 -14 9 4 6 -2 6 -15 -1 -24 -14 -28 -26 -5 -17 10 4 14 2
11 -6 -2 -7 -10 -12 -16 -10 -7 1 -11 -6 -9 -15 2 -13 -3 -18 -18 -17 -15 0
-20 -4 -17 -13 3 -8 1 -13 -3 -11 -15 5 -59 -35 -62 -57 -2 -11 -9 -23 -15
-27 -11 -7 -3 -12 14 -10 3 1 6 -5 6 -12 0 -9 -12 -12 -35 -10 -31 2 -32 1
-15 -11 11 -9 13 -14 5 -15 -7 0 -10 -5 -6 -12 4 -7 3 -8 -5 -4 -6 4 -8 12 -5
18 5 7 2 8 -5 4 -7 -5 -10 -14 -7 -22 3 -8 -1 -14 -10 -14 -9 0 -12 5 -8 12 4
6 3 8 -3 5 -6 -4 -10 -21 -9 -38 1 -18 -5 -38 -13 -47 -9 -9 -17 -19 -17 -24
-1 -4 -2 -12 -3 -18 0 -5 -8 -10 -17 -10 -9 0 -14 -6 -11 -13 4 -10 -2 -13
-21 -9 -24 5 -26 4 -13 -12 12 -14 12 -16 -4 -10 -15 6 -16 4 -6 -14 10 -18 9
-20 -9 -17 -23 4 -36 -10 -19 -21 8 -5 9 -3 4 6 -5 9 -4 11 4 6 15 -10 3 -29
-14 -22 -9 3 -11 -2 -7 -16 4 -15 7 -17 14 -6 8 10 9 10 5 -2 -2 -8 -10 -14
-17 -12 -7 2 -10 -3 -7 -11 3 -7 -1 -14 -8 -14 -10 0 -11 5 -4 18 5 10 9 21 9
26 -1 4 -8 -4 -16 -20 -13 -25 -13 -29 1 -43 19 -20 19 -22 -2 -20 -10 0 -17
-5 -15 -12 1 -9 -6 -8 -25 4 -24 14 -25 14 -9 0 11 -8 20 -28 21 -44 1 -26 -1
-28 -34 -25 -29 2 -32 0 -18 -8 9 -6 23 -7 30 -4 6 4 4 0 -5 -8 -10 -8 -18
-19 -18 -25 0 -5 -6 -12 -14 -15 -10 -4 -13 -16 -9 -37 3 -25 1 -30 -9 -25
-10 6 -11 5 -1 -6 18 -18 16 -34 -1 -20 -12 10 -14 8 -9 -11 4 -22 4 -22 -11
-4 -9 11 -16 15 -16 9 0 -7 7 -19 16 -27 14 -15 13 -16 -8 -16 -18 0 -20 -2
-8 -9 8 -6 19 -7 25 -3 5 3 4 -2 -4 -12 -10 -12 -17 -14 -25 -6 -5 5 -15 10
-21 10 -5 0 -3 -5 5 -10 13 -9 12 -13 -9 -30 -13 -11 -19 -20 -14 -20 5 0 14
5 20 11 8 8 13 7 18 -2 5 -8 4 -10 -3 -5 -11 7 -17 -6 -13 -28 1 -4 -4 -14
-10 -22 -6 -8 -8 -14 -4 -14 4 0 2 -6 -4 -14 -6 -8 -11 -18 -10 -22 3 -21 -2
-35 -11 -29 -5 3 -10 -1 -10 -10 0 -9 4 -14 8 -11 5 3 9 -1 9 -9 0 -8 -5 -11
-10 -8 -6 4 -8 -5 -5 -21 4 -19 1 -26 -11 -27 -9 -1 -5 -5 9 -9 16 -5 19 -8 8
-9 -15 -1 -16 -5 -7 -28 7 -20 6 -28 -3 -35 -10 -6 -10 -8 2 -8 13 0 13 -1 0
-10 -13 -9 -13 -10 0 -10 12 0 12 -2 1 -9 -10 -6 -10 -10 -1 -16 9 -6 9 -9 -1
-16 -10 -6 -9 -12 6 -30 11 -12 15 -19 8 -16 -15 9 -27 -9 -13 -18 7 -5 5 -12
-7 -22 -10 -8 -13 -12 -7 -9 7 3 14 -3 17 -14 3 -12 1 -18 -5 -14 -6 4 -5 -3
1 -15 10 -18 9 -21 -6 -22 -16 0 -16 -1 2 -9 11 -5 14 -9 6 -9 -10 -1 -11 -4
-2 -14 6 -8 8 -17 4 -20 -3 -4 -2 -7 4 -7 5 0 10 -7 10 -15 0 -12 -3 -12 -15
-2 -13 10 -14 9 -3 -11 7 -12 16 -20 22 -17 5 4 9 1 9 -4 0 -6 -7 -11 -15 -11
-8 0 -15 -5 -15 -11 0 -6 9 -8 23 -4 17 5 19 4 7 -4 -8 -6 -11 -11 -6 -11 5 0
1 -10 -10 -22 l-19 -22 30 18 30 19 -19 -21 c-19 -22 -19 -22 0 -23 11 0 13
-3 7 -6 -7 -2 -13 -9 -13 -14 0 -6 6 -7 12 -3 10 6 10 5 1 -7 -7 -9 -9 -20 -3
-29 6 -9 4 -20 -3 -30 -11 -13 -10 -13 7 0 18 14 19 13 13 -2 -4 -11 -2 -17 5
-15 7 1 13 -5 14 -13 3 -37 4 -41 12 -36 10 6 10 -40 0 -49 -3 -4 2 -15 13
-26 10 -10 19 -25 19 -31 0 -10 -3 -9 -9 1 -6 9 -8 4 -8 -15 0 -16 2 -23 4
-16 8 20 22 14 18 -8 -3 -15 1 -20 12 -18 9 2 18 -4 20 -12 4 -13 3 -13 -7 0
-9 13 -11 12 -8 -5 3 -13 10 -19 22 -17 18 3 18 2 2 -13 -14 -15 -14 -35 0
-35 3 0 2 5 -2 12 -4 7 -3 8 4 4 7 -4 12 -14 12 -22 0 -8 6 -14 13 -14 8 0 7
-4 -3 -10 -11 -7 -11 -10 -2 -10 7 0 12 -7 10 -16 -2 -10 4 -19 12 -21 13 -4
13 -3 0 7 -13 10 -13 11 0 7 8 -2 14 -10 13 -16 -3 -12 32 -52 39 -45 3 2 3
-11 0 -29 -4 -31 -3 -31 11 -12 16 20 16 20 10 -2 -3 -14 -1 -23 6 -23 6 0 11
-5 11 -11 0 -5 -4 -7 -10 -4 -6 3 -7 -1 -4 -9 5 -14 8 -14 21 -1 8 8 17 15 21
15 3 0 1 -5 -6 -12 -14 -14 -16 -32 -2 -23 6 3 7 -1 4 -9 -4 -11 0 -16 11 -16
9 0 13 -4 10 -10 -3 -6 -1 -10 4 -10 6 0 10 -6 8 -12 -1 -7 5 -12 14 -12 11 1
15 -5 12 -17 -3 -11 0 -19 6 -19 6 0 11 -7 11 -16 0 -8 4 -12 10 -9 6 3 10 -4
10 -17 0 -13 3 -18 8 -12 5 9 10 8 19 -2 8 -8 9 -15 3 -19 -6 -4 -8 -11 -4
-16 3 -6 12 -5 22 3 13 11 15 10 10 -9 -5 -18 -2 -23 12 -23 20 0 36 -33 24
-51 -5 -8 1 -10 19 -7 23 5 25 3 16 -15 -7 -11 -7 -17 -1 -13 12 7 52 -27 52
-45 0 -11 2 -11 10 1 8 12 10 10 10 -10 0 -20 2 -22 10 -10 8 12 10 11 10 -6
0 -14 8 -24 21 -27 14 -4 20 -11 16 -21 -4 -9 -3 -15 1 -15 22 4 33 -3 29 -15
-4 -11 -1 -13 10 -9 12 5 14 3 8 -7 -5 -8 -3 -11 6 -8 20 7 89 -50 82 -68 -4
-10 0 -12 11 -8 11 4 16 2 14 -6 -2 -7 3 -15 11 -18 9 -3 11 0 6 8 -5 9 -4 11
4 6 6 -4 9 -10 7 -14 -2 -4 2 -13 10 -20 8 -7 14 -10 14 -7 0 3 6 0 14 -7 10
-10 11 -15 2 -21 -6 -5 -1 -6 12 -2 17 5 22 2 22 -12 0 -15 2 -16 10 -3 8 13
10 12 10 -3 0 -11 6 -17 18 -15 11 2 16 -3 15 -12 -2 -11 6 -16 25 -18 16 -1
37 -14 52 -32 21 -26 28 -29 39 -18 11 11 13 10 9 -7 -4 -15 0 -21 13 -23 11
-1 28 -3 39 -4 13 -2 18 -8 15 -18 -3 -11 2 -16 16 -17 12 -1 28 -10 36 -20 9
-11 12 -12 8 -3 -4 10 -2 9 8 -2 8 -10 17 -15 20 -11 4 3 7 1 7 -6 0 -7 5 -9
12 -5 8 5 9 2 4 -11 -5 -15 -4 -16 9 -5 12 10 15 9 15 -5 0 -14 3 -15 15 -5
13 11 14 10 9 -5 -5 -13 -4 -16 4 -11 7 4 12 2 12 -5 0 -7 3 -10 6 -6 3 3 17
-6 31 -21 13 -15 22 -21 18 -14 -4 7 0 12 9 12 9 0 16 -5 16 -11 0 -5 5 -7 10
-4 6 3 10 -2 10 -12 0 -14 2 -15 9 -5 7 12 12 12 30 1 11 -8 21 -17 21 -20 0
-9 52 -30 79 -32 13 -1 20 -6 17 -14 -3 -7 -1 -15 3 -18 5 -3 12 2 15 11 5 13
9 14 21 4 7 -6 11 -19 8 -27 -4 -10 -2 -14 4 -10 5 4 19 0 29 -7 13 -10 23
-11 31 -5 8 7 13 4 17 -8 3 -10 15 -19 25 -19 11 0 17 4 15 8 -11 17 49 -14
68 -35 11 -12 17 -16 13 -9 -4 8 0 11 14 9 27 -4 39 -17 16 -17 -25 0 -15 -8
18 -14 15 -2 27 0 27 5 0 5 6 4 14 -3 10 -9 11 -15 2 -20 -8 -6 -8 -8 1 -8 6
0 15 4 18 10 3 5 11 10 17 10 6 0 5 -7 -3 -17 -8 -10 -9 -14 -2 -10 6 4 15 3
18 -3 4 -7 11 -8 18 -1 14 11 51 -11 39 -24 -4 -4 3 -4 16 -1 15 5 24 3 28 -8
3 -9 10 -16 15 -16 4 0 5 8 2 17 -6 15 -5 16 9 3 9 -8 14 -19 11 -24 -3 -4 5
-5 17 -1 13 4 20 3 17 -2 -3 -5 3 -9 14 -9 10 0 19 5 19 11 0 6 3 6 8 -1 4 -7
16 -14 27 -16 11 -2 19 -9 18 -14 -1 -6 11 -10 28 -9 16 1 29 -2 29 -7 0 -4 7
-8 15 -8 8 0 15 5 15 11 0 5 -5 7 -12 3 -7 -4 -8 -3 -4 5 9 14 26 5 26 -15 0
-8 5 -12 10 -9 6 3 10 2 10 -4 0 -5 9 -8 20 -6 11 2 20 -2 21 -8 0 -7 4 -3 9
8 8 19 9 19 9 -2 1 -14 7 -23 17 -23 9 0 12 5 8 12 -4 7 -3 8 5 4 6 -4 9 -12
6 -17 -9 -13 9 -11 24 4 10 10 11 8 5 -8 -7 -18 -6 -18 9 -6 14 11 17 11 17 0
0 -11 2 -11 10 1 6 9 10 10 10 3 0 -7 10 -17 21 -24 15 -7 19 -8 15 0 -8 12
21 4 42 -12 8 -7 12 -4 12 9 1 16 3 15 15 -6 8 -14 14 -19 15 -13 0 14 35 12
47 -2 5 -4 3 -5 -3 -2 -6 3 -11 0 -11 -8 0 -10 5 -11 19 -4 13 7 18 6 18 -3 0
-10 2 -10 9 1 7 11 9 11 14 0 4 -11 6 -11 6 -1 1 8 8 6 23 -8 27 -25 35 -25
41 -2 4 15 5 15 6 1 0 -9 8 -20 17 -23 10 -4 13 -2 8 7 -5 9 -4 9 7 0 17 -17
32 -17 23 -1 -4 7 3 4 16 -7 13 -11 20 -14 16 -8 -4 7 -3 13 2 13 5 0 14 -10
21 -22 11 -23 11 -23 5 2 l-7 25 22 -25 c13 -14 19 -18 15 -10 -6 12 -4 13 7
3 17 -17 32 -17 23 0 -4 6 3 3 16 -8 17 -15 24 -17 27 -7 4 10 9 8 19 -5 13
-17 14 -17 7 1 -4 13 -3 17 5 12 7 -4 12 -2 12 5 0 7 6 5 13 -6 8 -10 19 -15
25 -11 6 3 14 1 18 -5 4 -8 3 -9 -4 -5 -7 4 -12 2 -12 -4 0 -7 8 -9 20 -5 12
4 28 1 37 -7 12 -9 15 -9 9 -1 -4 7 -3 13 3 13 5 0 13 -5 16 -10 5 -8 11 -7
21 1 11 9 14 8 14 -2 0 -11 2 -11 10 1 8 13 10 13 10 -2 0 -12 6 -15 23 -11
18 4 19 3 7 -6 -8 -6 -10 -11 -4 -11 5 0 16 6 23 13 10 9 12 9 7 0 -5 -9 4
-11 30 -9 21 1 42 -3 50 -11 12 -12 14 -12 14 4 0 14 2 15 9 4 7 -11 11 -10
19 4 9 17 10 17 17 -4 4 -13 11 -18 18 -14 7 4 19 8 27 10 11 1 11 -1 -3 -11
-16 -12 -16 -14 -2 -20 9 -3 13 -2 10 4 -3 6 1 10 10 10 9 0 14 -4 11 -9 -7
-10 20 -9 30 2 4 4 13 2 21 -4 9 -9 17 -8 27 0 11 9 15 9 18 -1 4 -10 8 -10
21 1 11 9 17 10 17 2 0 -6 5 -11 11 -11 5 0 8 4 5 8 -3 5 1 9 9 9 8 0 15 -7
15 -14 0 -8 5 -11 10 -8 6 4 7 12 3 18 -4 7 1 6 11 -2 13 -11 20 -11 28 -3 17
17 33 15 18 -3 -7 -8 -11 -15 -9 -16 31 -6 38 -6 34 1 -3 4 2 10 10 13 10 4
12 1 8 -11 -6 -14 -4 -15 9 -4 15 12 52 7 44 -7 -2 -3 6 -6 19 -6 13 0 21 5
18 10 -3 6 0 5 7 -2 9 -8 19 -9 31 -3 11 7 20 7 24 0 9 -15 27 -12 19 3 -6 9
-4 9 7 -1 17 -16 32 -16 23 1 -4 6 3 3 15 -7 22 -20 22 -20 16 0 -6 17 -5 18
7 2 13 -15 15 -15 26 0 7 9 10 12 7 6 -2 -7 2 -15 11 -18 8 -3 12 -2 9 4 -3 6
3 10 15 10 12 0 19 -4 16 -8 -3 -5 1 -9 9 -9 8 0 12 4 10 7 -3 4 6 8 20 8 16
0 22 -5 18 -12 -4 -6 1 -5 10 3 11 9 17 10 17 2 0 -6 8 -11 18 -11 14 0 15 2
2 10 -13 8 -12 10 3 10 9 0 17 -6 17 -12 0 -9 4 -8 10 2 8 12 10 12 10 1 0
-11 3 -11 17 0 15 12 16 12 10 -5 -6 -15 -5 -17 6 -8 8 7 18 8 22 4 5 -4 5 2
1 12 -6 19 -6 19 12 3 14 -13 21 -14 30 -5 7 7 12 8 12 2 0 -6 7 -11 15 -11 9
0 14 6 11 13 -3 8 0 11 10 7 7 -3 14 -9 14 -14 0 -5 5 -9 11 -9 5 0 8 3 6 8
-3 4 26 7 64 7 38 0 69 -2 69 -5 0 -4 -6 -12 -12 -20 -7 -8 -4 -7 8 3 18 15
22 15 36 1 12 -12 17 -13 23 -3 5 7 4 10 -3 5 -6 -3 -16 3 -22 15 -10 17 -9
20 2 13 13 -9 18 -10 39 -13 5 0 7 -6 3 -13 -4 -7 -3 -8 5 -4 9 6 9 11 -1 24
-12 14 -10 14 10 3 20 -11 21 -15 10 -29 -12 -15 -11 -16 4 -3 10 7 16 17 13
21 -3 4 17 7 44 7 27 -1 48 -4 46 -7 -2 -3 1 -12 7 -20 8 -12 9 -12 4 2 -6 22
10 34 18 13 3 -8 11 -15 18 -14 10 0 10 2 1 6 -7 2 -13 9 -13 14 0 4 7 5 17 2
11 -4 14 -3 9 5 -5 8 -2 10 8 6 9 -3 13 -11 9 -18 -4 -6 1 -5 10 3 9 7 23 11
31 8 8 -3 17 -1 20 6 3 9 5 8 5 -1 1 -10 6 -10 22 -1 15 8 19 8 15 0 -4 -6 0
-11 8 -11 9 0 16 5 16 12 0 9 3 9 12 0 16 -16 31 -15 22 1 -5 8 -2 8 9 -2 12
-9 17 -10 17 -2 0 7 5 9 12 5 20 -13 90 -7 99 7 7 11 9 9 10 -6 l0 -20 9 20
c5 11 9 14 9 8 1 -7 6 -13 12 -13 5 0 8 4 5 9 -3 5 1 12 10 15 12 5 15 2 9
-11 -5 -14 -1 -12 15 5 11 12 24 22 27 22 4 0 2 -5 -5 -12 -7 -7 -12 -17 -12
-23 0 -5 4 -4 9 3 4 7 14 14 22 15 8 2 20 6 27 10 7 5 12 3 12 -4 0 -8 4 -8
15 1 12 10 15 10 15 0 0 -10 4 -10 16 1 13 10 17 10 24 -2 8 -12 11 -12 22 0
11 12 10 12 -2 6 -13 -8 -13 -7 -1 8 14 18 26 24 17 8 -3 -5 3 -11 15 -14 17
-5 18 -3 8 9 -10 12 -9 13 4 9 8 -4 18 -1 22 4 3 6 12 8 18 4 6 -4 24 -6 40
-5 16 1 26 -2 23 -7 -4 -5 -2 -13 4 -16 6 -4 10 -3 9 2 -4 23 4 29 37 25 27
-3 35 -1 29 8 -4 7 5 4 21 -6 15 -11 25 -14 21 -8 -4 7 0 14 7 17 8 3 17 1 20
-6 4 -7 4 -2 2 11 -4 19 -2 21 10 11 11 -9 14 -8 14 2 0 11 2 11 10 -1 9 -13
10 -13 10 0 0 13 1 13 10 0 5 -8 10 -10 10 -5 0 6 9 11 20 12 13 1 18 -2 13
-10 -5 -9 -3 -9 8 -1 8 6 31 11 52 10 21 -1 41 2 44 7 3 6 1 7 -5 3 -7 -4 -12
-5 -12 -2 0 3 10 10 21 17 17 9 20 8 14 -2 -6 -9 -3 -11 9 -6 10 4 20 7 22 7
3 0 2 6 -2 13 -5 7 -1 7 10 -2 15 -13 19 -13 27 0 5 8 9 9 9 3 0 -6 7 -11 15
-11 18 0 20 13 3 20 -12 5 -2 6 52 8 13 0 18 5 14 12 -5 8 -3 8 7 -1 17 -16
32 -16 23 1 -5 8 -2 8 9 -2 9 -7 17 -9 17 -4 0 6 12 8 26 5 21 -4 25 -2 19 8
-6 10 -4 12 8 7 12 -4 17 -1 18 11 0 11 2 12 6 4 4 -10 8 -10 21 0 9 7 13 8 9
2 -3 -6 1 -11 9 -11 9 0 13 6 10 14 -4 9 -2 11 6 6 23 -14 49 -11 43 5 -4 12
-3 13 10 2 13 -11 14 -10 10 2 -5 12 2 14 39 11 25 -2 47 0 51 6 3 6 11 11 17
11 6 0 5 -7 -3 -17 -12 -15 -12 -16 1 -8 8 5 21 17 28 27 10 14 17 16 26 9 8
-7 16 -7 22 -1 14 14 56 22 49 10 -3 -6 1 -7 10 -4 14 6 14 9 -2 28 -10 11
-11 15 -3 9 16 -15 34 -17 26 -5 -3 5 1 9 9 9 8 0 12 -4 9 -9 -3 -4 0 -8 5 -8
6 0 11 5 11 11 0 8 4 8 14 0 10 -8 16 -9 21 -1 3 6 11 7 17 4 7 -4 8 -2 4 5
-6 9 -11 9 -22 0 -10 -8 -14 -8 -14 0 0 6 3 11 8 12 4 0 15 2 25 4 9 2 17 -2
17 -8 0 -7 5 -4 11 6 13 22 30 22 22 0 -6 -15 -5 -16 9 -3 9 8 14 18 11 23 -2
4 3 7 11 7 9 0 16 6 16 13 0 9 3 8 9 -2 6 -8 14 -10 22 -5 8 5 23 10 34 11 11
2 25 10 32 19 7 10 13 12 18 4 9 -15 27 -1 21 17 -3 8 -2 12 3 8 5 -3 12 1 15
7 3 7 3 2 1 -12 -6 -25 -5 -25 10 3 9 15 18 27 21 27 3 0 3 -4 0 -9 -3 -5 3
-11 13 -14 14 -3 18 0 15 17 -2 11 -2 15 2 9 3 -7 13 -13 22 -13 15 0 15 2 2
10 -12 8 -11 10 8 10 12 0 22 6 22 13 0 7 3 8 8 2 12 -17 29 -15 44 3 12 16
11 16 -6 2 -18 -14 -18 -14 -6 7 13 20 15 20 26 5 11 -15 14 -15 23 8 5 14 10
19 10 13 1 -7 6 -13 12 -13 6 0 9 6 6 14 -3 8 1 13 11 13 31 0 82 15 82 25 0
6 7 7 16 4 15 -6 15 -4 3 10 -13 16 -12 16 9 5 21 -11 24 -10 29 9 4 16 8 18
14 8 7 -11 9 -11 9 1 0 11 3 11 17 0 14 -12 16 -12 8 0 -6 11 -3 13 12 9 14
-4 20 -1 19 10 -1 11 8 16 26 16 14 1 30 5 35 10 5 5 3 6 -4 2 -7 -4 -13 -2
-13 3 0 6 5 11 11 11 5 0 8 4 5 8 -3 5 5 8 17 8 14 -1 21 4 19 13 -3 12 0 12
12 2 11 -9 16 -9 22 0 5 8 3 9 -6 4 -9 -5 -11 -4 -6 3 4 7 17 17 29 22 21 11
21 11 3 -4 -17 -14 -17 -16 -4 -16 9 0 20 5 23 10 4 6 11 7 17 4 7 -4 8 -2 4
4 -5 8 1 12 17 12 15 0 28 8 35 23 6 12 11 16 11 10 1 -7 5 -13 11 -13 5 0 7
7 4 15 -5 11 -2 13 12 8 13 -5 15 -3 9 8 -7 11 -5 11 10 -1 11 -9 16 -10 11
-2 -4 6 -2 12 4 12 6 0 22 12 36 28 14 15 23 21 19 15 -3 -7 -1 -13 4 -13 6 0
11 5 11 11 0 5 6 7 13 4 6 -4 3 1 -8 11 -17 14 -17 16 -2 11 10 -4 17 -1 17 6
0 8 3 8 9 -2 7 -11 11 -10 20 6 5 11 7 24 3 29 -4 5 1 2 11 -5 12 -10 17 -10
17 -2 0 7 4 10 9 7 5 -4 12 0 14 6 4 10 6 10 6 1 1 -7 5 -13 11 -13 5 0 7 7 4
15 -9 23 5 38 24 23 12 -10 14 -10 8 0 -4 7 -2 12 5 12 6 0 18 8 26 18 8 9 12
11 8 5 -4 -9 -1 -11 9 -7 9 3 13 11 9 17 -4 7 0 8 12 3 16 -6 16 -4 4 10 -13
16 -12 16 10 5 22 -13 23 -12 19 13 -3 17 -1 23 6 18 19 -11 46 -12 46 -1 0 5
-5 7 -11 3 -7 -4 -10 -2 -8 5 3 7 7 11 10 9 3 -2 18 12 34 30 23 28 30 31 43
20 12 -10 14 -10 8 0 -4 7 -2 12 4 12 6 0 9 4 6 8 -2 4 5 14 17 22 20 12 21
12 9 -3 -9 -10 -10 -17 -2 -22 6 -4 9 -1 8 7 -2 7 2 12 9 11 8 -2 10 4 6 14
-5 12 -3 14 7 8 10 -6 12 -3 8 13 -3 12 -3 21 1 20 30 -4 39 4 36 30 -2 15 -2
21 1 14 3 -6 10 -10 15 -7 5 4 7 0 6 -7 -2 -7 -2 -10 0 -5 3 4 9 4 15 1 5 -4
5 4 -2 16 -9 17 -9 25 1 34 9 8 10 8 5 -1 -4 -7 -2 -13 3 -13 6 0 11 5 11 11
0 5 6 7 13 3 8 -5 7 -2 -2 9 -12 15 -12 17 4 11 13 -5 16 -4 11 4 -5 8 -1 10
10 5 12 -4 15 -3 10 5 -4 7 -1 12 8 12 9 0 16 5 16 11 0 5 -5 7 -12 3 -7 -4
-8 -3 -4 5 6 9 11 9 24 -1 12 -10 14 -10 8 0 -4 7 -1 12 9 12 9 0 18 12 22 31
4 22 8 27 14 17 7 -10 9 -9 9 5 0 9 7 17 16 17 8 0 12 5 9 10 -3 6 1 13 10 16
9 4 21 17 25 30 7 17 15 22 27 18 16 -5 16 -4 -1 10 -18 15 -17 15 13 11 18
-2 29 0 25 6 -3 5 -9 7 -14 4 -4 -3 -7 3 -5 12 1 11 9 17 20 15 12 -2 16 1 12
11 -6 15 27 50 38 39 3 -4 3 2 -1 11 -4 12 -2 17 7 15 10 -2 13 5 11 22 -2 20
-1 22 7 10 8 -11 11 -11 11 -2 0 7 5 10 11 6 7 -4 7 2 -1 17 -7 13 -9 21 -5
17 10 -9 34 14 27 26 -3 5 2 7 11 3 9 -3 16 -3 16 1 -2 17 14 52 25 52 6 0 4
5 -4 10 -10 6 -11 10 -2 10 6 0 12 7 12 15 0 8 5 15 11 15 5 0 7 -5 3 -12 -5
-7 -3 -8 5 -3 9 5 10 10 2 18 -7 7 -5 14 7 23 10 8 12 13 5 14 -7 0 -13 5 -13
11 0 5 5 7 10 4 6 -3 10 -1 10 5 0 6 5 8 11 4 8 -4 9 0 4 15 -3 12 -2 21 4 21
5 0 8 9 6 21 -4 18 -2 19 12 7 13 -10 15 -10 9 0 -4 7 -2 20 6 29 11 14 11 16
-2 9 -8 -4 -7 -1 4 8 11 9 16 21 12 32 -5 13 -3 14 7 6 10 -8 12 -3 10 28 -1
30 3 43 18 54 12 8 16 15 9 18 -7 2 -3 12 9 25 l21 22 -23 4 -22 4 23 2 c12 0
22 4 23 9 0 4 2 18 5 31 2 13 -1 31 -8 39 -11 13 -11 14 1 7 11 -6 13 -4 8 8
-4 10 0 20 10 26 9 5 18 16 19 25 1 9 -1 14 -6 11 -12 -8 -6 23 8 37 9 9 8 16
-6 32 -9 11 -12 16 -5 13 15 -9 14 35 -2 45 -6 5 -3 8 8 8 9 0 17 5 17 11 0 5
-3 8 -7 6 -5 -3 -8 10 -8 29 0 36 4 41 22 23 8 -8 13 -7 18 2 5 7 4 10 -2 6
-5 -3 -17 3 -26 14 -9 10 -12 19 -6 19 5 0 8 4 4 9 -3 5 -1 12 4 16 6 3 8 -4
6 -15 -2 -11 0 -18 5 -15 9 6 8 24 -3 43 -6 8 -2 12 10 12 17 1 17 1 0 11 -13
8 -15 14 -7 30 8 14 7 19 -2 19 -8 0 -9 3 -3 8 16 12 16 32 -1 32 -8 0 -12 5
-9 10 4 6 10 8 15 5 5 -3 12 0 16 6 4 8 3 9 -4 5 -7 -4 -12 -2 -12 4 0 6 -4 9
-8 6 -5 -3 -9 2 -9 10 0 8 6 13 13 10 8 -3 11 0 7 10 -3 8 -12 13 -19 10 -9
-3 -11 0 -7 11 4 9 2 14 -3 10 -5 -3 -10 3 -10 13 0 15 3 17 15 7 12 -10 13
-9 2 11 -6 12 -8 22 -4 22 4 0 1 5 -7 10 -13 8 -13 10 -1 10 11 0 10 4 -5 16
-18 15 -18 15 0 10 16 -6 17 -4 6 9 -7 8 -17 12 -22 9 -6 -4 -6 2 1 13 6 11 7
23 3 27 -3 4 0 5 8 3 8 -2 12 -2 7 0 -4 3 -5 9 -2 14 4 5 0 6 -8 3 -10 -3 -14
2 -13 18 3 31 -14 68 -31 68 -7 0 -13 4 -13 10 0 5 8 7 18 4 13 -5 14 -4 3 4
-8 6 -20 8 -28 5 -7 -3 -13 0 -13 6 0 6 7 11 15 11 13 0 13 4 -2 28 l-17 27
24 -20 25 -20 -18 21 c-9 11 -15 23 -12 26 3 3 -8 4 -25 3 -16 -1 -27 2 -24 7
4 5 12 7 20 4 8 -3 14 -1 14 4 0 9 -15 14 -33 11 -5 -1 -6 3 -2 9 9 15 -14 52
-28 44 -9 -5 -9 -3 0 6 10 11 9 18 -5 34 -9 11 -11 16 -5 12 9 -5 12 1 11 18
-2 19 -8 26 -22 26 -20 0 -20 0 0 14 19 14 19 15 -1 22 -22 9 -51 34 -39 34 4
0 0 6 -11 13 -14 11 -15 16 -5 22 9 6 11 4 5 -5 -6 -9 -4 -11 4 -6 9 6 9 12
-3 25 -9 10 -13 21 -9 26 5 4 2 5 -4 1 -8 -4 -13 -2 -13 6 0 9 -3 9 -10 -2 -8
-13 -10 -13 -10 2 0 9 6 19 13 22 6 3 2 3 -10 0 -22 -5 -26 8 -9 35 6 9 5 12
-2 7 -5 -3 -12 -3 -15 1 -2 5 -2 2 -1 -4 2 -7 -1 -13 -6 -13 -9 0 -15 38 -11
62 0 5 -2 7 -7 7 -22 -4 -31 3 -25 18 4 11 3 14 -5 9 -13 -8 -43 5 -45 20 -1
5 -5 8 -9 7 -5 -2 -8 2 -8 8 0 6 10 8 23 5 12 -3 16 -3 9 0 -6 3 -10 10 -7 15
4 5 -1 6 -9 3 -14 -5 -21 5 -18 28 1 3 -5 12 -14 18 -12 11 -13 10 -9 -3 4 -8
1 -18 -6 -23 -7 -4 -10 -3 -6 4 9 14 -3 43 -14 36 -5 -3 -9 4 -9 16 0 12 -4
18 -10 15 -9 -6 -14 8 -11 28 2 12 -17 8 -22 -5 -3 -8 -6 -5 -6 5 -1 10 -5 16
-10 13 -5 -4 -7 7 -5 24 3 18 1 30 -6 30 -6 0 -8 5 -5 10 4 6 3 10 -2 9 -21
-4 -34 2 -27 13 5 7 3 8 -7 2 -8 -4 -22 -10 -33 -11 -18 -3 -18 -3 0 14 11 10
15 15 10 11 -17 -13 -36 -9 -30 6 3 8 0 17 -7 22 -7 4 -10 3 -6 -3 3 -5 0 -10
-8 -10 -11 0 -12 5 -3 21 10 19 10 20 -6 7 -14 -12 -16 -12 -9 4 5 14 3 17 -9
12 -12 -4 -19 2 -26 23 -6 15 -10 30 -9 32 1 1 0 2 -2 1 -2 -2 -11 3 -20 9
-12 10 -12 8 2 -8 25 -30 21 -37 -8 -12 -13 11 -22 25 -19 29 9 16 -15 19 -30
3 -9 -8 -17 -11 -17 -5 -3 20 -5 26 -17 48 -11 20 -10 22 5 16 14 -5 13 -3 -3
13 -10 11 -22 16 -25 12 -3 -5 -11 -2 -18 6 -7 8 -20 13 -30 11 -14 -2 -17 2
-15 21 1 13 -2 22 -7 18 -5 -3 -9 0 -9 7 0 7 -3 9 -6 6 -4 -4 -1 -13 6 -22 11
-13 10 -14 -4 -9 -9 3 -16 13 -16 21 0 9 -5 11 -12 7 -9 -5 -9 -2 1 9 15 20 8
22 -20 6 -18 -9 -19 -8 -10 9 7 14 7 19 -4 19 -8 0 -12 -4 -9 -8 2 -4 0 -10
-5 -13 -11 -7 -9 13 3 32 5 8 3 12 -6 10 -7 -2 -12 2 -11 8 1 6 -5 11 -13 11
-8 0 -14 -4 -14 -9 0 -4 5 -8 10 -8 6 0 10 -5 10 -12 0 -6 -8 -3 -20 7 -11 10
-18 21 -15 24 2 4 -5 13 -16 19 -19 12 -19 11 -8 -10 9 -18 9 -21 -1 -11 -7 6
-20 9 -29 6 -12 -4 -13 -3 -3 5 11 7 11 12 -2 24 -8 9 -12 19 -8 24 4 5 -1 2
-10 -5 -18 -13 -24 -6 -19 22 1 5 -3 6 -9 2 -6 -3 -7 -11 -4 -17 4 -7 2 -8 -4
-4 -7 4 -12 2 -12 -5 0 -6 -10 1 -22 17 -13 16 -21 35 -20 43 3 11 1 12 -10 4
-17 -15 -48 7 -51 35 -1 20 -18 20 -44 -1 -12 -9 -17 -3 -14 17 1 5 -6 5 -16
2 -9 -4 -14 -4 -11 0 4 3 -4 18 -18 32 -13 15 -24 31 -24 37 -1 5 -8 -1 -16
-15 -13 -21 -15 -22 -11 -4 3 13 -1 21 -9 21 -7 0 -11 -4 -8 -9 3 -4 0 -8 -5
-8 -6 0 -11 5 -11 10 0 6 -7 10 -16 10 -8 0 -13 4 -10 8 2 4 -5 14 -17 22 -20
12 -21 12 -8 -3 22 -27 7 -20 -27 12 -16 16 -28 32 -25 34 8 8 -20 2 -36 -7
-10 -7 -12 -3 -6 15 7 23 7 24 -9 4 -12 -16 -16 -17 -17 -5 -1 8 -1 19 0 23 1
5 -3 6 -8 3 -5 -3 -7 -16 -5 -29 4 -20 4 -20 -4 -2 -5 11 -14 21 -21 21 -6 1
-15 2 -20 3 -5 0 -12 10 -16 21 -5 16 -10 17 -30 10 -16 -6 -27 -6 -31 2 -4 6
-3 8 3 5 5 -3 10 1 10 9 0 10 -7 8 -25 -8 l-25 -23 12 23 c7 12 8 21 4 20 -4
-1 -18 3 -30 10 -14 8 -24 9 -28 2 -8 -13 -25 -13 -25 1 0 5 5 7 12 3 7 -4 8
-3 4 5 -6 9 -11 9 -22 0 -12 -10 -15 -10 -12 2 2 8 8 17 13 21 6 4 -5 6 -22 3
-18 -2 -33 1 -33 6 0 6 -4 7 -10 4 -5 -3 -10 2 -10 12 0 15 -2 16 -10 3 -9
-13 -10 -13 -11 0 -1 8 -1 19 0 24 1 5 -5 4 -13 -3 -10 -9 -25 -11 -43 -5 -16
4 -32 6 -36 5 -5 -1 -6 3 -2 9 3 6 10 8 15 5 4 -3 10 2 14 10 4 12 -2 11 -33
-4 l-38 -20 2 23 c2 18 -2 22 -19 21 -11 -1 -28 4 -37 12 -15 13 -19 12 -33
-9 -17 -23 -17 -23 -11 11 5 30 4 32 -10 17 -21 -21 -26 -20 -18 2 3 9 3 14
-2 10 -4 -4 -15 -2 -24 5 -14 10 -14 10 -3 -5 9 -11 10 -18 2 -23 -5 -3 -10
-1 -10 5 0 6 -4 9 -9 5 -6 -3 -8 4 -6 16 4 17 2 19 -10 9 -12 -10 -15 -10 -15
1 0 11 -2 11 -10 -1 -8 -12 -10 -12 -10 5 0 17 -2 17 -10 5 -8 -13 -10 -12
-10 4 0 12 -5 16 -15 12 -21 -8 -46 4 -39 18 3 6 -2 2 -10 -8 -16 -19 -16 -19
-16 5 0 13 -4 19 -8 13 -4 -6 -15 -13 -24 -17 -13 -4 -16 -1 -13 16 4 21 4 21
-16 -3 -11 -14 -18 -20 -15 -13 4 6 2 14 -3 17 -5 4 -12 -2 -14 -11 -4 -17 -5
-17 -6 0 -1 11 -6 15 -13 11 -7 -5 -9 -2 -5 9 4 11 2 14 -8 10 -8 -3 -12 -10
-8 -16 4 -6 1 -7 -6 -3 -9 6 -8 13 6 29 12 15 13 18 2 9 -9 -6 -19 -9 -22 -5
-4 3 -7 -1 -7 -11 0 -9 -5 -14 -10 -11 -6 4 -7 12 -3 18 4 7 0 6 -10 -2 -11
-9 -17 -10 -17 -2 0 6 -5 11 -10 11 -6 0 -9 -5 -8 -11 2 -6 -3 -13 -10 -14 -7
-2 -8 -1 -2 2 5 2 7 9 4 14 -3 6 -12 5 -22 -3 -10 -7 -14 -9 -10 -4 12 14 -15
35 -29 24 -16 -13 -17 4 -3 18 7 7 6 11 -4 11 -8 0 -13 -4 -10 -8 2 -4 0 -10
-6 -14 -5 -3 -10 2 -10 11 0 10 -3 14 -6 11 -4 -3 -15 -2 -25 4 -15 7 -17 6
-13 -6 3 -8 10 -13 14 -10 5 3 11 1 15 -4 3 -6 -4 -8 -17 -6 -12 3 -26 11 -30
19 -5 8 -16 12 -28 9 -12 -3 -20 -2 -18 3 2 5 -1 10 -7 12 -5 1 -10 -2 -10 -7
0 -5 -4 -13 -9 -18 -5 -4 -6 -3 -3 3 4 6 -3 20 -15 30 -12 11 -18 13 -14 7 5
-9 0 -12 -17 -11 -16 1 -23 7 -20 15 4 10 0 11 -20 4 -23 -9 -25 -8 -22 10 4
17 2 19 -10 9 -8 -7 -12 -17 -9 -24 3 -6 -1 -3 -9 6 -11 14 -16 15 -27 5 -10
-9 -11 -9 -6 1 5 8 0 12 -14 12 -13 0 -19 4 -14 11 4 8 1 8 -12 1 -11 -5 -29
-8 -42 -6 -16 3 -21 0 -16 -8 4 -7 3 -8 -5 -4 -6 4 -8 12 -5 18 4 6 -1 6 -14
-1 -14 -8 -23 -8 -27 -1 -5 8 -11 8 -19 1 -9 -8 -13 -7 -13 4 0 8 5 11 10 8 6
-3 7 -2 4 3 -3 6 -22 11 -43 12 -20 2 -42 6 -48 9 -6 4 -4 -2 4 -13 14 -19 14
-19 -7 0 -13 10 -20 24 -16 30 4 6 -1 5 -10 -3 -18 -15 -23 -26 -7 -16 6 3 10
1 10 -4 0 -17 -20 -13 -27 5 -5 14 -8 13 -18 -7 l-13 -22 -6 21 c-4 12 -12 22
-17 22 -6 0 -7 -6 -3 -12 4 -7 -2 -4 -14 6 -12 11 -22 16 -22 11 0 -4 -8 -1
-17 6 -16 13 -17 12 -4 -3 7 -10 17 -16 21 -13 4 3 10 -1 13 -8 3 -7 -3 -13
-13 -13 -10 0 -16 4 -14 8 3 4 1 8 -5 8 -5 0 -13 -5 -16 -11 -5 -6 -13 -2 -22
11 -14 19 -17 20 -38 6 -21 -14 -23 -14 -18 4 6 23 -7 26 -26 8 -11 -10 -13
-10 -7 0 5 8 0 12 -13 12 -12 0 -21 5 -21 12 0 6 -6 4 -13 -6 -12 -17 -15 -17
-29 -2 -21 21 -29 20 -21 -1 6 -16 4 -16 -16 1 -21 19 -21 19 -15 1 5 -12 4
-16 -3 -12 -6 4 -13 2 -15 -5 -3 -7 -7 -5 -11 6 -4 9 -3 15 1 12 4 -2 9 5 9
16 2 20 1 20 -14 -2 l-16 -23 -19 23 c-10 12 -18 17 -18 10 0 -9 -4 -9 -17 1
-11 10 -14 10 -9 2 5 -9 0 -13 -14 -13 -14 0 -19 4 -14 13 6 9 4 9 -8 -1 -11
-9 -18 -10 -23 -2 -8 13 -25 13 -25 -1 0 -5 5 -7 12 -3 6 4 8 3 5 -3 -4 -6
-18 -8 -33 -5 -17 3 -22 7 -13 12 7 5 2 7 -14 7 -15 -1 -22 -6 -17 -12 5 -6
-1 -10 -15 -10 -15 0 -20 4 -15 10 5 6 4 17 -2 25 -8 13 -9 12 -5 -2 3 -9 -1
-19 -9 -22 -8 -3 -14 -2 -14 3 0 4 -7 8 -15 8 -8 0 -12 -4 -9 -9 3 -4 0 -8 -5
-8 -6 0 -11 5 -11 11 0 8 -4 8 -15 -1 -8 -6 -19 -9 -24 -6 -5 4 -13 1 -17 -5
-5 -9 -11 -7 -20 5 -6 9 -15 13 -17 8 -3 -4 -21 -7 -39 -6 -18 1 -36 -3 -40
-9 -6 -9 -8 -8 -8 1 0 7 -5 10 -12 6 -7 -5 -8 -3 -3 6 6 10 1 12 -21 7 -16 -3
-38 -9 -49 -13 -18 -7 -18 -6 -6 9 7 9 18 14 24 10 6 -3 7 -1 3 6 -5 8 -13 7
-28 -3 -22 -16 -52 -11 -41 7 3 6 1 7 -6 3 -9 -6 -9 -11 0 -22 17 -21 -10 -15
-31 6 -8 9 -11 10 -6 3 5 -8 4 -13 -3 -13 -7 0 -9 -5 -5 -12 4 -7 3 -8 -4 -4
-7 4 -12 15 -13 24 0 14 -2 13 -9 -3 -6 -14 -9 -16 -10 -5 -2 8 -2 19 -1 23 1
5 -3 5 -9 2 -6 -4 -9 -14 -6 -22 4 -10 2 -13 -8 -10 -7 3 -20 0 -27 -6 -7 -7
-5 -2 6 11 18 22 18 23 0 16 -14 -6 -16 -4 -10 7 5 8 -4 3 -18 -10 l-27 -24
-1 24 -1 24 -8 -25 c-4 -14 -8 -19 -9 -11 -1 11 -6 10 -22 -5 -15 -14 -20 -15
-17 -4 2 8 7 18 12 21 4 4 3 9 -2 13 -6 3 -13 -3 -17 -14 -6 -20 -7 -20 -23
-1 -17 20 -17 20 -44 0z m26 -10 c-31 -12 -39 -10 -19 5 11 8 24 12 29 8 5 -3
1 -9 -10 -13z m139 -4 c-3 -9 -8 -14 -10 -11 -3 3 -2 9 2 15 9 16 15 13 8 -4z
m922 -35 c3 -5 1 -10 -4 -10 -6 0 -11 5 -11 10 0 6 2 10 4 10 3 0 8 -4 11 -10z
m-2953 -262 c-7 -7 -12 -8 -12 -2 0 14 12 26 19 19 2 -3 -1 -11 -7 -17z m4223
12 c-3 -5 -12 -10 -18 -10 -7 0 -6 4 3 10 19 12 23 12 15 0z m199 -71 c-3 -5
-10 -7 -15 -3 -5 3 -7 10 -3 15 3 5 10 7 15 3 5 -3 7 -10 3 -15z m-4684 -18
c0 -5 -7 -12 -16 -15 -14 -5 -15 -4 -4 9 14 17 20 19 20 6z m27 -6 c0 -8 -4
-12 -9 -9 -5 3 -6 10 -3 15 9 13 12 11 12 -6z m5283 -236 c0 -5 -11 1 -25 13
-14 12 -25 23 -25 25 0 2 11 -4 25 -13 14 -9 25 -20 25 -25z m151 -66 c7 -10
9 -15 5 -11 -5 4 -16 2 -25 -5 -14 -10 -14 -10 -4 4 7 9 10 19 6 22 -3 4 -4 7
-1 7 3 0 12 -8 19 -17z m104 -63 c-3 -5 -12 -10 -18 -10 -7 0 -6 4 3 10 19 12
23 12 15 0z m-6745 -270 c0 -5 -5 -10 -11 -10 -5 0 -7 5 -4 10 3 6 8 10 11 10
2 0 4 -4 4 -10z m7201 -38 c2 2 0 -1 -5 -7 -5 -7 -10 -6 -13 3 -3 6 -8 10 -12
8 -4 -3 -8 1 -8 9 0 13 3 13 17 0 9 -8 19 -14 21 -13z m-7261 4 c0 -2 -7 -7
-16 -10 -8 -3 -12 -2 -9 4 6 10 25 14 25 6z m7337 -86 c1 -11 -2 -20 -7 -20
-6 0 -7 17 -1 38 3 8 7 -1 8 -18z m223 -175 c11 -13 10 -14 -4 -9 -9 3 -16 10
-16 15 0 13 6 11 20 -6z m-7916 -61 c3 -9 2 -12 -4 -9 -6 4 -20 -4 -31 -17
-11 -13 -17 -16 -13 -8 7 15 35 50 39 50 2 0 6 -7 9 -16z m8145 -237 c0 -9 -2
-8 -6 1 -2 6 -10 9 -15 6 -7 -4 -8 -2 -4 5 9 13 26 5 25 -12z m86 -117 c3 -5
1 -10 -4 -10 -6 0 -11 5 -11 10 0 6 2 10 4 10 3 0 8 -4 11 -10z m62 -96 c-3
-3 -12 -4 -19 -1 -8 3 -5 6 6 6 11 1 17 -2 13 -5z m-8702 -183 c3 -5 2 -12 -3
-15 -5 -3 -9 1 -9 9 0 17 3 19 12 6z m8835 -150 c7 -15 7 -22 -2 -27 -7 -4
-10 -4 -6 1 4 4 3 16 -3 26 -5 11 -7 19 -5 19 3 0 10 -9 16 -19z m10 -855 c0
-3 -4 -8 -10 -11 -5 -3 -10 -1 -10 4 0 6 5 11 10 11 6 0 10 -2 10 -4z m-7420
-1542 c0 -8 -19 -13 -24 -6 -3 5 1 9 9 9 8 0 15 -2 15 -3z m160 -94 c0 -5 -2
-10 -4 -10 -3 0 -8 5 -11 10 -3 6 -1 10 4 10 6 0 11 -4 11 -10z m201 -83 c-10
-9 -11 -8 -5 6 3 10 9 15 12 12 3 -3 0 -11 -7 -18z m899 -277 c0 -5 -2 -10 -4
-10 -3 0 -8 5 -11 10 -3 6 -1 10 4 10 6 0 11 -4 11 -10z"/>
<path d="M4930 8001 c0 -6 4 -13 10 -16 6 -3 7 1 4 9 -7 18 -14 21 -14 7z"/>
<path d="M5030 7990 c-8 -5 -12 -12 -9 -15 4 -3 12 1 19 10 14 17 11 19 -10 5z"/>
<path d="M3695 7939 c-4 -6 -14 -8 -22 -5 -8 3 -11 2 -8 -3 8 -14 42 -9 42 6
0 16 -4 16 -12 2z"/>
<path d="M5670 7930 c0 -5 5 -10 11 -10 5 0 7 5 4 10 -3 6 -8 10 -11 10 -2 0
-4 -4 -4 -10z"/>
<path d="M5970 7901 c0 -6 4 -12 8 -15 5 -3 9 1 9 9 0 8 -4 15 -9 15 -4 0 -8
-4 -8 -9z"/>
<path d="M6035 7890 c3 -5 8 -10 11 -10 2 0 4 5 4 10 0 6 -5 10 -11 10 -5 0
-7 -4 -4 -10z"/>
<path d="M3313 7875 c0 -8 4 -15 9 -15 4 0 8 4 8 9 0 6 -4 12 -8 15 -5 3 -9
-1 -9 -9z"/>
<path d="M3056 7813 c-6 -14 -5 -15 5 -6 7 7 10 15 7 18 -3 3 -9 -2 -12 -12z"/>
<path d="M2985 7800 c-3 -6 1 -7 9 -4 18 7 21 14 7 14 -6 0 -13 -4 -16 -10z"/>
<path d="M6495 7780 c3 -5 8 -10 11 -10 2 0 4 5 4 10 0 6 -5 10 -11 10 -5 0
-7 -4 -4 -10z"/>
<path d="M7090 7609 c0 -5 5 -7 10 -4 6 3 10 8 10 11 0 2 -4 4 -10 4 -5 0 -10
-5 -10 -11z"/>
<path d="M7480 7463 c0 -6 8 -17 18 -24 16 -13 16 -13 2 6 -8 11 -16 22 -17
24 -2 2 -3 0 -3 -6z"/>
<path d="M1806 7388 c3 -5 10 -6 15 -3 13 9 11 12 -6 12 -8 0 -12 -4 -9 -9z"/>
<path d="M7715 7360 c-3 -5 -1 -10 4 -10 6 0 11 5 11 10 0 6 -2 10 -4 10 -3 0
-8 -4 -11 -10z"/>
<path d="M1650 7315 c0 -8 4 -15 10 -15 5 0 7 7 4 15 -4 8 -8 15 -10 15 -2 0
-4 -7 -4 -15z"/>
<path d="M7838 7274 c12 -8 19 -21 16 -27 -5 -8 -3 -8 6 0 12 11 11 15 -6 28
-10 8 -23 15 -29 15 -5 0 1 -7 13 -16z"/>
<path d="M7935 7210 c3 -5 8 -10 11 -10 2 0 4 5 4 10 0 6 -5 10 -11 10 -5 0
-7 -4 -4 -10z"/>
<path d="M1400 7206 c0 -2 8 -10 18 -17 15 -13 16 -12 3 4 -13 16 -21 21 -21
13z"/>
<path d="M7985 7170 c22 -25 21 -25 28 1 4 16 3 18 -9 8 -10 -8 -14 -8 -14 0
0 6 -5 11 -12 11 -6 0 -3 -9 7 -20z"/>
<path d="M1264 7076 c-5 -14 -9 -14 -23 -4 -14 12 -15 11 -2 -5 13 -16 16 -16
30 -3 8 9 12 19 8 22 -4 4 -9 -1 -13 -10z"/>
<path d="M1150 6999 c0 -5 5 -7 10 -4 6 3 10 8 10 11 0 2 -4 4 -10 4 -5 0 -10
-5 -10 -11z"/>
<path d="M1015 6921 c-3 -5 -2 -12 3 -15 5 -3 9 1 9 9 0 17 -3 19 -12 6z"/>
<path d="M8388 6893 c7 -3 16 -2 19 1 4 3 -2 6 -13 5 -11 0 -14 -3 -6 -6z"/>
<path d="M750 6660 c0 -5 5 -10 11 -10 5 0 7 5 4 10 -3 6 -8 10 -11 10 -2 0
-4 -4 -4 -10z"/>
<path d="M8676 6641 c-4 -5 -2 -12 3 -15 5 -4 12 -2 15 3 4 5 2 12 -3 15 -5 4
-12 2 -15 -3z"/>
<path d="M550 6399 c0 -5 -5 -7 -10 -4 -6 4 -9 3 -8 -2 1 -4 -4 -19 -11 -32
-9 -16 -10 -22 -1 -19 6 2 11 8 11 13 0 6 10 20 21 33 12 12 16 22 10 22 -7 0
-12 -5 -12 -11z"/>
<path d="M478 6333 c7 -3 16 -2 19 1 4 3 -2 6 -13 5 -11 0 -14 -3 -6 -6z"/>
<path d="M370 6140 c0 -5 5 -10 11 -10 5 0 7 5 4 10 -3 6 -8 10 -11 10 -2 0
-4 -4 -4 -10z"/>
<path d="M9070 6039 c0 -5 5 -7 10 -4 6 3 10 8 10 11 0 2 -4 4 -10 4 -5 0 -10
-5 -10 -11z"/>
<path d="M9086 6007 c3 -10 9 -15 12 -12 3 3 0 11 -7 18 -10 9 -11 8 -5 -6z"/>
<path d="M216 5747 c3 -10 9 -15 12 -12 3 3 0 11 -7 18 -10 9 -11 8 -5 -6z"/>
<path d="M203 5716 c3 -7 0 -20 -6 -27 -10 -11 -9 -11 5 0 15 11 15 41 1 41
-3 0 -3 -6 0 -14z"/>
<path d="M9190 5039 c0 -5 5 -7 10 -4 6 3 10 8 10 11 0 2 -4 4 -10 4 -5 0 -10
-5 -10 -11z"/>
<path d="M250 4903 c0 -6 8 -17 18 -24 16 -13 16 -13 2 6 -8 11 -16 22 -17 24
-2 2 -3 0 -3 -6z"/>
<path d="M925 3920 c-4 -6 -1 -9 7 -8 7 2 12 -3 10 -10 -1 -8 2 -11 7 -8 5 4
12 0 14 -6 3 -8 6 -8 6 -2 1 18 -36 47 -44 34z"/>
<path d="M981 3874 c0 -11 3 -14 6 -6 3 7 2 16 -1 19 -3 4 -6 -2 -5 -13z"/>
<path d="M8345 3830 c-10 -11 -15 -20 -11 -20 11 0 39 30 34 36 -3 2 -13 -5
-23 -16z"/>
<path d="M1236 3687 c3 -10 9 -15 12 -12 3 3 0 11 -7 18 -10 9 -11 8 -5 -6z"/>
<path d="M1670 3436 c0 -2 8 -10 18 -17 15 -13 16 -12 3 4 -13 16 -21 21 -21
13z"/>
<path d="M1830 3354 c0 -8 5 -12 10 -9 6 4 8 11 5 16 -9 14 -15 11 -15 -7z"/>
<path d="M1996 3282 c-3 -5 1 -9 9 -9 8 0 12 4 9 9 -3 4 -7 8 -9 8 -2 0 -6 -4
-9 -8z"/>
<path d="M6697 3033 c-4 -3 -7 -11 -7 -17 0 -6 5 -5 12 2 6 6 9 14 7 17 -3 3
-9 2 -12 -2z"/>
<path d="M5706 2837 c3 -10 9 -15 12 -12 3 3 0 11 -7 18 -10 9 -11 8 -5 -6z"/>
<path d="M4694 2768 c-4 -7 -4 -10 1 -6 4 4 15 2 24 -5 14 -11 14 -10 2 6 -16
20 -18 21 -27 5z"/>
<path d="M4950 2769 c0 -5 5 -7 10 -4 6 3 10 8 10 11 0 2 -4 4 -10 4 -5 0 -10
-5 -10 -11z"/>
</g>
</svg>
